<?xml version="1.0" encoding="UTF-8" standalone="no"?>
<!-- Created with Inkscape (http://www.inkscape.org/) -->

<svg
   version="1.1"
   id="svg430"
   width="5333.3335"
   height="4000"
   viewBox="0 0 5333.3335 4000"
   sodipodi:docname="battery_cover.svg"
   inkscape:version="1.2.2 (b0a8486541, 2022-12-01)"
   xml:space="preserve"
   xmlns:inkscape="http://www.inkscape.org/namespaces/inkscape"
   xmlns:sodipodi="http://sodipodi.sourceforge.net/DTD/sodipodi-0.dtd"
   xmlns="http://www.w3.org/2000/svg"
   xmlns:svg="http://www.w3.org/2000/svg"><defs
     id="defs434"><rect
       x="2425.6439"
       y="1677.2994"
       width="602.7798"
       height="298.89092"
       id="rect41798" /><rect
       x="2517.2878"
       y="1756.5481"
       width="622.97886"
       height="243.4519"
       id="rect41792" /></defs><sodipodi:namedview
     id="namedview432"
     pagecolor="#ffffff"
     bordercolor="#000000"
     borderopacity="0.25"
     inkscape:showpageshadow="2"
     inkscape:pageopacity="0.0"
     inkscape:pagecheckerboard="0"
     inkscape:deskcolor="#d1d1d1"
     showgrid="false"
     showguides="false"
     inkscape:zoom="0.12004614"
     inkscape:cx="2078.3675"
     inkscape:cy="2740.6128"
     inkscape:window-width="2560"
     inkscape:window-height="1368"
     inkscape:window-x="0"
     inkscape:window-y="0"
     inkscape:window-maximized="1"
     inkscape:current-layer="svg430" /><g
     inkscape:groupmode="layer"
     id="layer3"
     inkscape:label="bg"><rect
       style="opacity:1;fill:#b4ebff;fill-opacity:1;stroke:none;stroke-width:8;stroke-linecap:round;stroke-dasharray:none;stroke-opacity:1"
       id="rect8725"
       width="5333.334"
       height="4000"
       x="0"
       y="0"
       ry="9.0981903" /></g><g
     inkscape:groupmode="layer"
     id="layer2"
     inkscape:label="board"
     style="display:inline"><path
       style="display:inline;fill:#808080;fill-opacity:1;stroke:#000000;stroke-width:16;stroke-linecap:round;stroke-dasharray:none;stroke-opacity:1"
       d="M -22.133463,1377.7136 C -38.053457,1328.7151 1744.4986,888.02653 2474.9143,514.68824 c 14.6488,-7.48745 -0.2617,-40.28009 14.9424,-46.56375 170.6581,-70.53084 281.8756,-168.57175 414.8841,-215.8446 183.4319,-65.19392 382.821,5.55926 454.6544,202.59031 51.677,141.74438 52.6966,290.01652 94.4961,439.40762 3.1761,11.35135 -24.5751,23.80822 -21.7616,35.25483 96.8846,394.16525 375.2993,856.55245 614.0553,1195.38195 15.496,21.991 59.175,4.8646 76.6258,25.339 111.7492,131.111 300.773,277.8097 370.6848,418.9835 87.0131,175.7069 112.1246,348.4624 -86.4967,498.8602 -101.9771,77.218 -400.3319,158.6382 -570.5138,183.264 -13.219,1.9129 -17.4441,-13.557 -30.769,-14.4781 -89.9554,-6.218 -871.9243,392.8866 -1460.2396,609.4627 -184.8113,68.0345 -538.4561,243.1462 -538.4561,243.1462 l -2509.31152,586.3892 z"
       id="path3645"
       sodipodi:nodetypes="csssssssssssssccc"
       inkscape:label="board" /><path
       style="display:inline;fill:none;fill-opacity:0.884046;stroke:#000000;stroke-width:16;stroke-linecap:round;stroke-dasharray:none;stroke-opacity:1"
       d="m 3814.2592,3236.3478 c -183.9141,-353.628 -203.5612,-365.152 -252.2779,-490.5603 -48.7166,-125.4083 -84.0713,-274.8607 46.7217,-393.5109 130.7931,-118.6503 198.1598,-117.8915 438.9709,-213.6463"
       id="path4738"
       sodipodi:nodetypes="czzc"
       inkscape:label="leg_bottom_a" /><path
       style="fill:none;fill-opacity:0.884046;stroke:#000000;stroke-width:8;stroke-linecap:round;stroke-dasharray:none;stroke-opacity:1"
       d="m 3846.1037,3241.6814 c -185.7845,-349.6028 -208.3094,-371.8936 -255.7981,-498.5877 -47.4887,-126.6941 -83.6341,-270.5965 47.1589,-389.2467 130.7931,-118.6503 182.1854,-120.465 422.9965,-216.2198"
       id="path4738-3"
       sodipodi:nodetypes="czzc"
       inkscape:label="leg_bottom_b" /><path
       style="fill:none;fill-opacity:0.884046;stroke:#000000;stroke-width:16;stroke-linecap:round;stroke-dasharray:none;stroke-opacity:1"
       d="m 3433.1854,921.40451 c -183.0619,58.07241 -289.5402,110.52139 -399.7795,130.51689 -110.2393,19.9954 -251.5703,15.208 -341.5972,-146.21952 -90.027,-161.42754 -139.8769,-266.03428 -210.3727,-393.814"
       id="path4738-6"
       sodipodi:nodetypes="czzc"
       inkscape:label="leg_top_a" /><path
       style="display:inline;fill:none;fill-opacity:0.884046;stroke:#000000;stroke-width:8;stroke-linecap:round;stroke-dasharray:none;stroke-opacity:1"
       d="m 3451.5673,893.89775 c -179.5766,53.05977 -290.0103,107.38855 -410.2824,131.60905 -120.2722,24.2205 -255.168,-4.3245 -320.4878,-116.22064 -65.3198,-111.89612 -168.2033,-310.4217 -232.7933,-436.7404"
       id="path4738-3-7"
       sodipodi:nodetypes="czzc"
       inkscape:label="leg_top_b" /><path
       style="fill:none;fill-opacity:0.884046;stroke:#000000;stroke-width:16;stroke-linecap:round;stroke-dasharray:none;stroke-opacity:1"
       d="m 3338.7483,522.2716 c 13.698,173.1539 -179.0559,297.03379 -368.3837,243.65839 -189.3278,-53.3754 -234.8502,-259.34697 -181.8687,-379.81736 52.9815,-120.47039 205.9767,-164.69436 319.2407,-149.12356 113.264,15.57079 217.3136,112.12864 231.0117,285.28253 z"
       id="path5805"
       sodipodi:nodetypes="zzzzz"
       inkscape:label="leg_top" /><path
       style="fill:none;fill-opacity:0.884046;stroke:#000000;stroke-width:8;stroke-linecap:round;stroke-dasharray:none;stroke-opacity:1"
       d="m 2834.1646,321.84166 c -111.509,252.23124 91.9707,369.91209 177.2631,382.70787 85.2924,12.79578 354.6109,11.91974 296.2644,-309.27445"
       id="path5807"
       sodipodi:nodetypes="czc"
       inkscape:label="leg_top_2" /><path
       style="fill:#404040;fill-opacity:1;stroke:#000000;stroke-width:16;stroke-linecap:round;stroke-dasharray:none;stroke-opacity:1"
       d="m 3005.7063,401.27084 c 47.2595,-42.76369 135.2841,-33.8345 158.5831,38.65884 23.299,72.49334 -58.0393,127.45296 -117.2487,106.80684 -59.2094,-20.64612 -88.5939,-102.702 -41.3344,-145.46568 z"
       id="path5809"
       sodipodi:nodetypes="zzzz"
       inkscape:label="leg_top_foot" /><path
       style="fill:none;fill-opacity:0.884046;stroke:#000000;stroke-width:16;stroke-linecap:round;stroke-dasharray:none;stroke-opacity:1"
       d="m 4519.8256,2764.3583 c -11.7873,190.7529 -201.7304,337.1472 -411.5141,256.2196 -209.7837,-80.9276 -279.5111,-290.1095 -229.5533,-456.6313 49.9578,-166.5218 272.3165,-219.3525 390.0666,-173.313 117.7501,46.0395 262.7881,182.9718 251.0008,373.7247 z"
       id="path5805-5"
       sodipodi:nodetypes="zzzzz"
       inkscape:label="leg_bottom" /><path
       style="fill:none;fill-opacity:0.884046;stroke:#000000;stroke-width:8;stroke-linecap:round;stroke-dasharray:none;stroke-opacity:1"
       d="m 4511.5661,2678.1679 c 40.4421,239.4204 -138.8419,365.2208 -327.0982,319.6877 -188.2563,-45.5331 -328.5156,-301.3767 -185.9084,-494.9327 142.6072,-193.5561 472.5645,-64.1754 513.0066,175.245 z"
       id="path5807-3"
       sodipodi:nodetypes="zzzz"
       inkscape:label="leg_bottom_2" /><path
       style="fill:#404040;fill-opacity:1;stroke:#000000;stroke-width:16;stroke-linecap:round;stroke-dasharray:none;stroke-opacity:1"
       d="m 4152.3582,2607.914 c 49.0347,-56.5865 170.7698,-26.084 193.8349,61.8789 23.0651,87.9629 -45.3788,165.8981 -140.1348,136.0264 -94.756,-29.8717 -102.7348,-141.3188 -53.7001,-197.9053 z"
       id="path5809-5"
       sodipodi:nodetypes="zzzz"
       inkscape:label="leg_bottom_foot" /><path
       style="display:inline;fill:#404040;fill-opacity:1;stroke:#000000;stroke-width:16;stroke-linecap:round;stroke-dasharray:none;stroke-opacity:1"
       d="m 3049.4307,1329.4309 c 8.3517,18.8081 403.6407,803.1361 403.6407,803.1361 13.7041,30.051 25.6068,46.4037 61.8985,29.3142 l 150.1055,-70.6837 c 23.8836,-11.2466 30.5654,-28.6214 21.743,-44.8719 l -68.0803,-125.4012 -31.7278,14.0299 c -28.3311,12.5279 -40.0064,-19.0585 -49.2369,-33.9978 l -258.0685,-514.6583 c -15.2306,-31.3548 -3.0097,-51.809 12.2517,-60.0308 l 18.3823,-9.9031 c 0,0 -38.0789,-74.3151 -54.2499,-110.1426 -11.8975,-26.3594 -27.8357,-28.2621 -47.2762,-21.5067 -29.7892,10.3515 -148.8968,50.0667 -174.2305,65.7084 -25.3337,15.6417 6.4967,60.1994 14.8484,79.0075 z"
       id="path5967"
       sodipodi:nodetypes="zsssscsccscsszz"
       inkscape:label="handle" /><path
       style="fill:none;fill-opacity:0.330671;stroke:#000000;stroke-width:8;stroke-linecap:round;stroke-dasharray:none;stroke-opacity:1"
       d="m 3044.0348,1312.3083 132.5239,-51.6286 c 22.894,-8.919 34.3711,-4.0355 45.141,17.0354 l 423.4696,828.506"
       id="path6111"
       sodipodi:nodetypes="cssc"
       inkscape:label="handle_inner" /><path
       style="display:inline;opacity:1;fill:#404040;fill-opacity:1;stroke:#000000;stroke-width:8;stroke-linecap:round;stroke-dasharray:none;stroke-opacity:1"
       d="m 2787.3907,2318.1319 28.1601,-14.1247 5.2019,8.8972 99.8874,-43.7783 -4.0068,-7.6344 36.2706,-17.5805 -24.51,-49.3732 -164.3236,70.9263 z"
       id="path6351"
       sodipodi:nodetypes="ccccccccc"
       inkscape:label="batt_insides" /><path
       style="display:inline;opacity:1;fill:none;fill-opacity:1;stroke:#000000;stroke-width:8;stroke-linecap:round;stroke-dasharray:none;stroke-opacity:1"
       d="m 2883.3395,1470.9212 316.4342,649.3187 c 14.1362,30.5068 4.6535,66.4182 -21.0001,81.2854 l -590.8672,255.0755 c -28.6277,9.0735 -57.4489,-2.1663 -71.3583,-28.4617 L 2226.1555,1758.603 c -28.4187,-67.3572 -18.1661,-89.5729 28.2038,-107.9157 0,0 416.525,-155.322 553.9529,-207.1807 37.481,-8.1865 62.5085,9.205 75.0273,27.4146 z"
       id="path6267"
       inkscape:label="batt_brim"
       sodipodi:nodetypes="ccccccccc" /><path
       style="display:inline;opacity:1;fill:none;fill-opacity:1;stroke:#000000;stroke-width:8;stroke-linecap:round;stroke-dasharray:none;stroke-opacity:1"
       d="m 2982.3809,2284.6184 -7.0606,-13.208 189.2487,-81.3342 c 27.7736,-12.5925 28.8522,-46.8735 19.3683,-64.9081 l -309.763,-635.2331 c -19.0315,-30.9452 -37.349,-37.29 -77.9294,-22.2568 l -538.2735,199.2839 c -43.3288,18.5518 -31.1914,45.914 -16.3653,83.9127 l 290.0971,669.192 c 14.7669,23.5536 35.2765,28.2653 62.0032,15.8063 l 201.8699,-86.9388 6.5068,13.8911"
       id="path6295"
       sodipodi:nodetypes="cccccccccccc"
       inkscape:label="path6295" /><path
       style="display:none;opacity:1;fill:#404040;fill-opacity:1;stroke:#000000;stroke-width:8;stroke-linecap:round;stroke-dasharray:none;stroke-opacity:1"
       d="m 2941.7444,2142.0785 12.9901,20.6905 126.3904,-56.0387 -27.1055,-52.276 17.4315,-6.8589 26.6398,48.3285 20.2173,-9.0544 -22.9469,-42.9073 16.468,1.2451 19.4035,35.031 23.0832,-11.1079 -39.9007,-68.0215 -408.444,140.8855 c 80.3553,4.3825 158.2816,23.211 235.7733,0.084 z"
       id="path16072"
       sodipodi:nodetypes="cccccccccccccc"
       inkscape:label="batt_insides"
       sodipodi:insensitive="true" /><path
       style="display:inline;opacity:1;fill:#404040;fill-opacity:1;stroke:#000000;stroke-width:8;stroke-linecap:round;stroke-dasharray:none;stroke-opacity:1"
       d="m 2584.3318,2337.0001 159.6265,-65.5976 -4.3852,-12.4394 350.8193,-149.9633 -272.745,-584.539 -14.4578,6.2179 -17.9655,-41.3028 -86.4927,32.7198 18.3185,41.8948 -291.406,113.3089 -20.1858,-44.0075 -92.7816,37.0285 18.4513,42.6414 -16.5505,7.0015 z"
       id="path17580"
       sodipodi:nodetypes="ccccccccccccccc"
       inkscape:label="batt_comp" /><ellipse
       style="opacity:1;fill:#bf4040;fill-opacity:1;stroke:#000000;stroke-width:8;stroke-linecap:round;stroke-dasharray:none;stroke-opacity:1"
       id="path20334"
       ry="19.712818"
       rx="20.756416"
       cy="2356.4392"
       cx="2683.2185" /></g><g
     inkscape:groupmode="layer"
     id="layer4"
     inkscape:label="batt_cover_open"
     style="display:inline"><path
       style="display:inline;fill:#808080;fill-opacity:1;stroke:#000000;stroke-width:16;stroke-linecap:round;stroke-dasharray:none;stroke-opacity:1"
       d="m 2870.0105,1486.658 362.4425,487.9353 c 9.5293,14.7851 0.59,36.1204 -18.9334,43.577 l -210.4295,93.4316 -33.0875,-54.8603 c -6.4279,-11.6412 -12.9306,-14.0616 -24.4789,-6.3892 l -448.0633,160.5985 -269.7213,-527.303 576.6276,-216.5763 c 25.7518,-9.3569 45.2682,-7.0424 65.6438,19.5864 z"
       id="path6190"
       inkscape:label="batt_lid"
       sodipodi:nodetypes="cccccccccc" /><g
       inkscape:groupmode="layer"
       id="layer1"
       inkscape:label="hand"
       style="display:inline"><path
         style="display:inline;opacity:1;fill:#ffffff;fill-opacity:1;stroke:#000000;stroke-width:16;stroke-linecap:round;stroke-dasharray:none;stroke-opacity:1"
         d="M -133.31921,4469.7462 C 447.406,4069.5383 1064.8326,3346.9357 1510.2879,3009.8803 c 445.4553,-337.0555 740.7886,-471.3432 876.9697,-494.8382 115.8494,-54.4961 296.6914,-94.8053 382.0485,-175.4003 52.4647,-51.5326 17.0011,-98.9781 99.4029,-131.8999 82.4019,-32.9218 113.242,-79.5708 78.9646,-148.6516 -34.2773,-69.0809 -172.3834,-48.4386 -281.0069,3.1978 -108.6234,51.6363 -160.8746,89.7618 -237.9843,73.7406 -77.1097,-16.0213 -168.4313,-72.3065 -180.8833,-126.5403 -21.2517,-92.5605 -19.6428,-132.1776 -20.7968,-176.2978 107.022,-42.2856 146.2824,-100.5807 163.3846,-173.2812 17.1022,-72.7005 -93.964,-107.4867 -128.0115,-64.8589 -55.5218,-12.1541 -102.9585,-57.7512 -105.3029,-113.1751 14.3472,-38.6877 -76.9159,-22.8085 -113.1078,-68.749 -36.192,-45.9405 -109.7364,-61.9615 -206.1879,-71.587 -96.4515,-9.6255 -124.5304,-63.161 -229.7136,3.2969 -52.5917,33.2289 -112.933,126.6594 -198.6834,146.0353 -85.9084,19.4116 -123.8794,113.5314 -160.9409,109.2666 -74.1229,-8.5296 -129.5686,-1.1338 -242.0292,115.3188 -112.46065,116.4526 -44.87225,444.5497 -259.96946,613.1441 -215.09722,168.5944 -1020.00762,342.3407 -1476.97418,516.5407 z"
         id="path653"
         sodipodi:nodetypes="czcczzzzsczcczzssszzcc"
         inkscape:label="hand" /><path
         style="fill:none;fill-opacity:0.485746;stroke:#000000;stroke-width:16;stroke-linecap:round;stroke-dasharray:none;stroke-opacity:1"
         d="m 2227.0023,1833.1906 c 4.8463,-47.4481 0.1712,-95.3982 0.1712,-95.3982"
         id="path2850"
         sodipodi:nodetypes="cc" /><path
         style="fill:none;fill-opacity:0.485746;stroke:#000000;stroke-width:16;stroke-linecap:round;stroke-dasharray:none;stroke-opacity:1"
         d="m 2157.0725,1481.8754 c -34.5297,-72.7089 -153.1586,-55.523 -223.8333,-8.8111"
         id="path2852"
         sodipodi:nodetypes="cc" /></g></g><g
     inkscape:groupmode="layer"
     id="layer5"
     inkscape:label="sync_button_press"
     style="display:none"><rect
       style="opacity:1;fill:#ffffff;fill-opacity:1;stroke:#9fd5f0;stroke-width:19.4;stroke-linecap:butt;stroke-dasharray:none;stroke-dashoffset:79.54;stroke-opacity:1"
       id="rect30760"
       width="1056.238"
       height="504.17947"
       x="2138.5479"
       y="1545.0894"
       ry="179.92181" /><text
       xml:space="preserve"
       id="text41790"
       style="white-space:pre;shape-inside:url(#rect41792);display:inline;opacity:1;fill:#ffffff;fill-opacity:1;stroke:#1f7ba6;stroke-width:19.4;stroke-linecap:butt;stroke-dasharray:none;stroke-dashoffset:79.54;stroke-opacity:1" /><text
       xml:space="preserve"
       id="text41796"
       style="font-size:192px;line-height:1.1;letter-spacing:10.77px;white-space:pre;shape-inside:url(#rect41798);display:inline;opacity:1;fill:#af3c3c;fill-opacity:1;stroke:#af3c3c;stroke-width:10.6;stroke-linecap:butt;stroke-dasharray:none;stroke-dashoffset:79.54;stroke-opacity:1"
       transform="translate(-0.78051419,28.128227)"><tspan
         x="2425.6445"
         y="1837.5949"
         id="tspan43260"><tspan
           style="font-family:'Noto Sans';-inkscape-font-specification:'Noto Sans'"
           id="tspan43258">SYNC</tspan></tspan></text><path
       style="opacity:1;fill:#ffffff;fill-opacity:1;stroke:#000000;stroke-width:16;stroke-linecap:butt;stroke-dasharray:none;stroke-dashoffset:79.54;stroke-opacity:1"
       d="m 2726.1427,4492.849 c 50.6243,-388.164 77.5713,-601.077 137.7053,-739.3109 59.4799,-136.73 87.2462,-193.9529 109.4105,-297.5489 31.875,-148.9837 67.7109,-122.75 86.5602,-227.9127 18.8493,-105.1627 -109.2831,-139.767 -205.5529,-56.7577 -96.2697,83.0092 -186.7597,217.8093 -223.7465,341.2599 l -70.6187,236.6229 81.5151,-317.4293 c 35.5368,-138.3846 -6.2116,-331.3936 38.3401,-462.4222 31.2026,-91.768 62.4018,-215.3544 66.0102,-293.4791 3.6083,-78.1247 20.9255,-207.9642 -82.4032,-220.8569 -51.6643,-6.4463 -100.9424,48.3245 -115.6138,122.1562 -21.6588,108.9949 -66.3757,158.2755 -79.0974,193.1748 -25.4434,69.7988 -33.3032,188.9271 -84.4326,307.6501 27.8558,-102.4685 57.7715,-86.6074 -80.0187,-113.6458 -48.4769,-9.5126 -133.2288,41.4707 -179.8512,40.2839 -168.936,-4.3004 -198.2697,73.0349 -299.4538,86.6407 -101.1842,13.6057 -168.6049,63.0983 -268.1437,131.3044 -99.5388,68.2061 -161.4127,110.6169 -304.853,309.0664 -143.4403,198.4495 -220.4859,943.5233 -220.4859,943.5233"
       id="path42686"
       sodipodi:nodetypes="csszzscsszssscsszzzc" /><ellipse
       style="opacity:1;fill:none;fill-opacity:1;stroke:#ffffff;stroke-width:58.8596;stroke-linecap:round;stroke-dasharray:none;stroke-opacity:1"
       id="path30652"
       cx="2683.2185"
       cy="2356.4392"
       rx="220.57019"
       ry="220.57022" /><ellipse
       style="fill:none;fill-opacity:1;stroke:#af3c3c;stroke-width:19.4;stroke-linecap:round;stroke-dasharray:38.8, 77.6;stroke-dashoffset:79.54;stroke-opacity:1"
       id="path30652-2"
       cx="2683.2185"
       cy="2356.4392"
       rx="220.57019"
       ry="220.57022" /></g></svg>
